<?xml version="1.0" encoding="UTF-8" standalone="no"?>
<svg
   xmlns:dc="http://purl.org/dc/elements/1.1/"
   xmlns:cc="http://creativecommons.org/ns#"
   xmlns:rdf="http://www.w3.org/1999/02/22-rdf-syntax-ns#"
   xmlns:svg="http://www.w3.org/2000/svg"
   xmlns="http://www.w3.org/2000/svg"
   xmlns:sodipodi="http://sodipodi.sourceforge.net/DTD/sodipodi-0.dtd"
   xmlns:inkscape="http://www.inkscape.org/namespaces/inkscape"
   inkscape:version="1.0 (4035a4fb49, 2020-05-01)"
   sodipodi:docname="paint.svg"
   id="svg8"
   version="1.1"
   width="511pt"
   viewBox="0 0 511.99963 511"
   height="511pt">
  <metadata
     id="metadata14">
    <rdf:RDF>
      <cc:Work
         rdf:about="">
        <dc:format>image/svg+xml</dc:format>
        <dc:type
           rdf:resource="http://purl.org/dc/dcmitype/StillImage" />
      </cc:Work>
    </rdf:RDF>
  </metadata>
  <defs
     id="defs12" />
  <sodipodi:namedview
     inkscape:current-layer="svg8"
     inkscape:window-maximized="0"
     inkscape:window-y="0"
     inkscape:window-x="0"
     inkscape:cy="288.19067"
     inkscape:cx="464.67046"
     inkscape:zoom="0.53938356"
     showgrid="false"
     id="namedview10"
     inkscape:window-height="836"
     inkscape:window-width="1231"
     inkscape:pageshadow="2"
     inkscape:pageopacity="0"
     guidetolerance="10"
     gridtolerance="10"
     objecttolerance="10"
     borderopacity="1"
     bordercolor="#666666"
     pagecolor="#ffffff" />
  <path
     style="fill:#ffffff;fill-opacity:1"
     id="path2"
     d="m291.769531 292.269531c-3.898437 3.910157-3.898437 10.242188 0 14.140625 3.910157 3.910156 10.238281 3.910156 14.140625 0 3.910156-3.898437 3.910156-10.230468 0-14.140625-3.902344-3.898437-10.230468-3.898437-14.140625 0zm0 0" />
  <path
     style="fill:#ffffff;fill-opacity:1"
     id="path4"
     d="m320.058594 334.703125 79.949218 79.949219c3.90625 3.902344 10.238282 3.902344 14.144532 0 3.902344-3.90625 3.902344-10.238282 0-14.144532l-79.949219-79.949218c-3.90625-3.902344-10.238281-3.902344-14.144531 0-3.90625 3.90625-3.90625 10.238281 0 14.144531zm0 0" />
  <path
     style="fill:#ffffff;fill-opacity:1"
     id="path6"
     d="m465.488281 130.816406c.464844-1.1875 45.351563-115.472656 45.820313-116.660156 1.453125-3.703125.574218-7.917969-2.242188-10.730469-2.816406-2.8125-7.03125-3.6875-10.734375-2.226562l-116.53125 45.949219c-2.332031.917968-3.546875 2.410156-3.746093 2.578124-.027344.027344-.050782.050782-.078126.074219l-125.046874 125.714844c-35.203126-28.550781-63.917969-45.953125-85.6875-51.957031 12.710937-38.058594-9.269532-79.285156-48.035157-89.765625l-106.253906-32.84375c-3.542969-1.101563-7.402344-.140625-10.023437 2.480469-2.621094 2.621093-3.578126 6.480468-2.484376 10.023437l32.84375 106.253906c10.480469 38.753907 51.699219 60.765625 89.773438 48.046875 6.003906 21.769532 23.410156 50.480469 51.953125 85.679688-9.253906 9.203125-148.273437 147.507812-157.449219 156.636718-23.382812 23.394532-23.382812 61.464844.003906 84.863282 23.378907 23.367187 61.445313 23.398437 84.84375.015625l154.011719-153.21875c51.003907 50.359375 104.96875 96.8125 149.15625 128.304687 46.480469 33.125 71.222657 42.351563 85.28125 42.351563 7.628907 0 12.113281-2.722657 15.207031-5.8125 8.789063-8.792969 14.570313-28.777344-36.539062-100.488281-31.492188-44.1875-77.945312-98.152344-128.304688-149.15625l121.753907-122.429688c.15625-.183594 1.59375-1.359375 2.507812-3.683594zm-197.144531 57.558594 114.0625-114.667969c13.175781 23.871094 32.707031 43.390625 56.582031 56.554688l-111.902343 112.519531c-23.496094-23.195312-42.507813-40.503906-58.742188-54.40625zm-119.542969 232.214844-56.578125-56.582032 95.652344-95.160156c13.910156 16.242188 31.230469 35.265625 54.40625 58.738282zm-42.539062 42.320312-56.578125-56.578125 28.359375-28.214843 56.578125 56.578124zm102.371093-200.636718c-20.90625-23.925782-61.1875-72.667969-67.257812-103.832032 3.183594-2.265625 6.191406-4.804687 8.976562-7.589844 2.785157-2.785156 5.324219-5.792968 7.589844-8.976562 31.164063 6.070312 79.910156 46.359375 103.832032 67.257812zm190.15625-200.324219 29.0625-11.460938c7.542969 14.757813 19.480469 26.699219 34.246094 34.25l-11.429687 29.097657c-22.179688-11.710938-40.171875-29.703126-51.878907-51.886719zm70.660157 4.066406c-9.640625-5.347656-17.554688-13.261719-22.894531-22.902344l37.734374-14.878906zm-416.996094 47.960937-27.300781-88.324218c92.464844 28.578125 88.371094 27.324218 88.695312 27.410156 36.8125 9.835938 49.65625 56.359375 22.359375 83.648438-25.421875 25.425781-71.226562 17.738281-83.753906-22.734376zm-20.738281 366.816407c-15.59375-15.601563-15.59375-40.984375-.019532-56.566407l3.808594-3.789062 56.578125 56.578125-3.792969 3.773437c-15.597656 15.589844-40.980468 15.589844-56.574218.003907zm460.105468 11.527343c-4.898437 1.226563-27.085937-4.007812-79.695312-42.21875-44.984375-32.671874-97.769531-78.679687-148.632812-129.542968-15.117188-15.113282-29.039063-29.652344-41.515626-43.339844l54.738282-54.742188c13.6875 12.476563 28.226562 26.398438 43.34375 41.515626 50.863281 50.863281 96.871094 103.648437 129.539062 148.632812 38.214844 52.609375 43.453125 74.796875 42.222656 79.695312zm0 0" />
</svg>
