<?xml version="1.0" encoding="UTF-8" standalone="no"?>
<svg
   xmlns:dc="http://purl.org/dc/elements/1.1/"
   xmlns:cc="http://creativecommons.org/ns#"
   xmlns:rdf="http://www.w3.org/1999/02/22-rdf-syntax-ns#"
   xmlns:svg="http://www.w3.org/2000/svg"
   xmlns="http://www.w3.org/2000/svg"
   xmlns:sodipodi="http://sodipodi.sourceforge.net/DTD/sodipodi-0.dtd"
   xmlns:inkscape="http://www.inkscape.org/namespaces/inkscape"
   height="511pt"
   viewBox="0 0 511.99963 511"
   width="511pt"
   version="1.1"
   id="svg8"
   sodipodi:docname="create.svg"
   inkscape:version="1.0 (4035a4fb49, 2020-05-01)">
  <metadata
     id="metadata14">
    <rdf:RDF>
      <cc:Work
         rdf:about="">
        <dc:format>image/svg+xml</dc:format>
        <dc:type
           rdf:resource="http://purl.org/dc/dcmitype/StillImage" />
      </cc:Work>
    </rdf:RDF>
  </metadata>
  <defs
     id="defs12" />
  <sodipodi:namedview
     inkscape:document-rotation="0"
     pagecolor="#ffffff"
     bordercolor="#666666"
     borderopacity="1"
     objecttolerance="10"
     gridtolerance="10"
     guidetolerance="10"
     inkscape:pageopacity="0"
     inkscape:pageshadow="2"
     inkscape:window-width="1480"
     inkscape:window-height="929"
     id="namedview10"
     showgrid="false"
     inkscape:zoom="0.53938356"
     inkscape:cx="464.67046"
     inkscape:cy="517.06364"
     inkscape:window-x="0"
     inkscape:window-y="0"
     inkscape:window-maximized="0"
     inkscape:current-layer="svg8" />
  <path
     d="m291.769531 292.269531c-3.898437 3.910157-3.898437 10.242188 0 14.140625 3.910157 3.910156 10.238281 3.910156 14.140625 0 3.910156-3.898437 3.910156-10.230468 0-14.140625-3.902344-3.898437-10.230468-3.898437-14.140625 0zm0 0"
     id="path2"
     style="fill:#ffffff;fill-opacity:1;stroke:#ffffff;stroke-opacity:1;stroke-width:7.5146719;stroke-miterlimit:4;stroke-dasharray:none" />
  <path
     d="m 460.99353,133.51257 c 0.45487,-1.16203 44.37851,-112.995104 44.8372,-114.157125 1.42195,-3.623672 0.5619,-7.748083 -2.19408,-10.5002385 -2.75597,-2.7521556 -6.88038,-3.6083818 -10.50406,-2.1787894 L 379.10161,51.639759 c -2.28199,0.898273 -3.47077,2.358445 -3.66571,2.522809 -0.0268,0.02676 -0.0497,0.04969 -0.0765,0.07263 L 252.99555,177.25273 C 218.54774,149.31453 190.44899,132.28556 169.14654,126.41048 181.58476,89.168458 160.0759,48.826445 122.14202,38.570843 L 18.167875,6.4317811 C 14.700923,5.353853 10.924354,6.2941733 8.3594985,8.8590297 5.7946421,11.423885 4.858144,15.200454 5.9284267,18.667406 L 38.067488,122.64155 c 10.255602,37.92241 50.589972,59.46185 87.847282,47.01599 5.87508,21.30245 22.90787,49.39737 50.83843,83.84136 -9.05536,9.00567 -145.092117,144.34292 -154.071026,153.27596 -22.88111518,22.89258 -22.88111518,60.14607 0.0038,83.04247 22.877294,22.86583 60.126956,22.89641 83.023366,0.0153 L 256.41663,339.9013 c 49.90958,49.27888 102.71657,94.73531 145.95599,125.55181 45.48319,32.41428 69.69452,41.44288 83.45147,41.44288 7.46522,0 11.85338,-2.66424 14.88075,-5.68779 8.60049,-8.60431 14.2577,-28.15991 -35.75508,-98.33223 -30.8165,-43.23942 -76.27294,-96.04641 -125.55181,-145.95598 L 458.53953,137.11712 c 0.15289,-0.17965 1.55955,-1.3302 2.454,-3.60455 z M 268.07889,189.83619 379.69409,77.628517 c 12.89309,23.358923 32.00528,42.459643 55.36802,55.341263 L 325.56072,243.07512 C 302.56875,220.37748 283.96495,203.44025 268.07889,189.83619 Z M 151.10081,417.06869 95.736615,361.70067 189.33666,268.58225 c 13.61171,15.89369 30.5604,34.50897 53.23892,57.478 z m -41.62635,41.41229 -55.364197,-55.36419 27.750902,-27.60948 55.364195,55.3642 z M 209.6491,262.14908 c -20.45769,-23.41243 -59.87467,-71.10882 -65.81474,-101.60423 3.11528,-2.21702 6.05856,-4.7016 8.78396,-7.427 2.7254,-2.7254 5.20998,-5.66867 7.427,-8.78396 30.49541,5.94007 78.19562,45.3647 101.60423,65.81474 z M 395.7254,66.122978 424.16434,54.907943 c 7.38113,14.441173 19.0625,26.126367 33.51132,33.51514 L 446.4912,116.89643 C 424.7874,105.43676 407.18125,87.830605 395.7254,66.122978 Z m 69.14409,3.979158 C 455.43571,64.869218 447.69145,57.124958 442.46617,47.69118 L 479.39093,33.131513 Z M 56.820371,117.03403 30.10535,30.604881 c 90.48094,27.964959 86.47502,26.737955 86.79228,26.82205 36.02266,9.6249 48.59084,55.150139 21.87964,81.853699 -24.87643,24.88025 -69.698339,17.35769 -81.956899,-22.2466 z M 36.527046,475.98011 C 21.267872,460.71329 21.267872,435.87508 36.507933,420.62737 l 3.726878,-3.70776 55.364197,55.3642 -3.711588,3.69247 c -15.262996,15.25535 -40.1012,15.25535 -55.360374,0.004 z m 450.233544,11.28001 c -4.79334,1.20025 -26.50479,-3.92182 -77.98539,-41.31291 -44.0192,-31.97088 -95.67181,-76.99156 -145.44378,-126.76353 -14.79283,-14.78901 -28.416,-29.01612 -40.62487,-42.40995 l 53.56383,-53.56765 c 13.39382,12.20887 27.62094,25.83204 42.41377,40.62488 49.77197,49.77196 94.79265,101.42457 126.7597,145.44377 37.39492,51.4806 42.52081,73.19205 41.31674,77.98539 z m 0,0"
     id="path6"
     style="fill:#ffffff;fill-opacity:1;stroke:#ffffff;stroke-width:7.35344;stroke-miterlimit:4;stroke-dasharray:none;stroke-opacity:1" />
</svg>
