<?xml version="1.0" encoding="UTF-8" standalone="no"?>
<svg
   xmlns:dc="http://purl.org/dc/elements/1.1/"
   xmlns:cc="http://creativecommons.org/ns#"
   xmlns:rdf="http://www.w3.org/1999/02/22-rdf-syntax-ns#"
   xmlns:svg="http://www.w3.org/2000/svg"
   xmlns="http://www.w3.org/2000/svg"
   xmlns:sodipodi="http://sodipodi.sourceforge.net/DTD/sodipodi-0.dtd"
   xmlns:inkscape="http://www.inkscape.org/namespaces/inkscape"
   inkscape:version="1.0 (4035a4fb49, 2020-05-01)"
   sodipodi:docname="download.svg"
   id="svg7"
   version="1.1"
   width="512"
   viewBox="0 0 64 64"
   height="512">
  <metadata
     id="metadata13">
    <rdf:RDF>
      <cc:Work
         rdf:about="">
        <dc:format>image/svg+xml</dc:format>
        <dc:type
           rdf:resource="http://purl.org/dc/dcmitype/StillImage" />
      </cc:Work>
    </rdf:RDF>
  </metadata>
  <defs
     id="defs11" />
  <sodipodi:namedview
     inkscape:current-layer="svg7"
     inkscape:window-maximized="0"
     inkscape:window-y="0"
     inkscape:window-x="0"
     inkscape:cy="220.12567"
     inkscape:cx="371.10714"
     inkscape:zoom="0.35888672"
     showgrid="false"
     id="namedview9"
     inkscape:window-height="836"
     inkscape:window-width="1088"
     inkscape:pageshadow="2"
     inkscape:pageopacity="0"
     guidetolerance="10"
     gridtolerance="10"
     objecttolerance="10"
     borderopacity="1"
     bordercolor="#666666"
     pagecolor="#ffffff" />
  <g
     style="fill:#ffffff;fill-opacity:1"
     data-name="Layer 41"
     id="Layer_41">
    <path
       style="fill:#ffffff;fill-opacity:1"
       id="path2"
       d="m57.47 38.6a2 2 0 0 0 -2 2v6.83a6.07 6.07 0 0 1 -6.07 6.07h-34.8a6.07 6.07 0 0 1 -6.07-6.07v-6.83a2 2 0 1 0 -4 0v6.83a10.08 10.08 0 0 0 10.07 10.07h34.8a10.08 10.08 0 0 0 10.07-10.07v-6.83a2 2 0 0 0 -2-2z" />
    <path
       style="fill:#ffffff;fill-opacity:1"
       id="path4"
       d="m30.58 44.44a2 2 0 0 0 2.84 0l11.38-11.38a2 2 0 0 0 -2.8-2.83l-8 8v-29.73a2 2 0 0 0 -4 0v29.7l-8-8a2 2 0 0 0 -2.83 2.83z" />
  </g>
</svg>
