<?xml version="1.0" encoding="UTF-8" standalone="no"?>
<svg
   xmlns:dc="http://purl.org/dc/elements/1.1/"
   xmlns:cc="http://creativecommons.org/ns#"
   xmlns:rdf="http://www.w3.org/1999/02/22-rdf-syntax-ns#"
   xmlns:svg="http://www.w3.org/2000/svg"
   xmlns="http://www.w3.org/2000/svg"
   xmlns:sodipodi="http://sodipodi.sourceforge.net/DTD/sodipodi-0.dtd"
   xmlns:inkscape="http://www.inkscape.org/namespaces/inkscape"
   inkscape:version="1.0 (4035a4fb49, 2020-05-01)"
   sodipodi:docname="view.svg"
   version="1.1"
   width="512"
   viewBox="0 0 64 64"
   height="512"
   enable-background="new 0 0 64 64"
   id="Layer_1">
  <metadata
     id="metadata19">
    <rdf:RDF>
      <cc:Work
         rdf:about="">
        <dc:format>image/svg+xml</dc:format>
        <dc:type
           rdf:resource="http://purl.org/dc/dcmitype/StillImage" />
      </cc:Work>
    </rdf:RDF>
  </metadata>
  <defs
     id="defs17" />
  <sodipodi:namedview
     inkscape:current-layer="Layer_1"
     inkscape:window-maximized="0"
     inkscape:window-y="0"
     inkscape:window-x="0"
     inkscape:cy="187.75964"
     inkscape:cx="82.777487"
     inkscape:zoom="0.55372724"
     showgrid="false"
     id="namedview15"
     inkscape:window-height="696"
     inkscape:window-width="1135"
     inkscape:pageshadow="2"
     inkscape:pageopacity="0"
     guidetolerance="10"
     gridtolerance="10"
     objecttolerance="10"
     borderopacity="1"
     bordercolor="#666666"
     pagecolor="#ffffff" />
  <g
     style="fill:#ffffff;fill-opacity:1"
     id="g4">
    <path
       style="fill:#ffffff;fill-opacity:1"
       id="path2"
       d="m31.983 47.076c-.554 0-1.108-.016-1.665-.046-9.743-.545-18.714-5.759-23.999-13.948-.599-.928-.332-2.166.596-2.765.93-.599 2.166-.331 2.765.596 4.592 7.118 12.391 11.65 20.861 12.123 9.116.513 18.04-3.843 23.268-11.361.174-.25.344-.504.51-.762.598-.928 1.835-1.195 2.765-.597.928.599 1.195 1.836.597 2.765-.19.295-.386.587-.587.876-5.696 8.192-15.2 13.119-25.111 13.119z" />
  </g>
  <g
     style="fill:#ffffff;fill-opacity:1"
     id="g8">
    <path
       style="fill:#ffffff;fill-opacity:1"
       id="path6"
       d="m56.002 33.997c-.657 0-1.3-.323-1.683-.916-4.592-7.118-12.391-11.65-20.861-12.123-9.129-.521-18.041 3.843-23.268 11.361-.174.25-.344.504-.51.762-.598.928-1.836 1.195-2.765.597-.928-.599-1.195-1.836-.597-2.765.19-.295.386-.587.587-.876 6.015-8.65 16.27-13.647 26.776-13.073 9.743.545 18.714 5.759 23.999 13.948.599.928.332 2.166-.596 2.765-.335.217-.711.32-1.082.32z" />
  </g>
  <g
     style="fill:#ffffff;fill-opacity:1"
     id="g12">
    <path
       style="fill:#ffffff;fill-opacity:1"
       id="path10"
       d="m32 39.997c-4.411 0-8-3.589-8-8s3.589-8 8-8 8 3.589 8 8-3.589 8-8 8zm0-12c-2.168 0-4 1.832-4 4s1.832 4 4 4 4-1.832 4-4-1.832-4-4-4z" />
  </g>
</svg>
