<?xml version="1.0" encoding="UTF-8" standalone="no"?>
<svg
   xmlns:dc="http://purl.org/dc/elements/1.1/"
   xmlns:cc="http://creativecommons.org/ns#"
   xmlns:rdf="http://www.w3.org/1999/02/22-rdf-syntax-ns#"
   xmlns:svg="http://www.w3.org/2000/svg"
   xmlns="http://www.w3.org/2000/svg"
   xmlns:sodipodi="http://sodipodi.sourceforge.net/DTD/sodipodi-0.dtd"
   xmlns:inkscape="http://www.inkscape.org/namespaces/inkscape"
   inkscape:version="1.0 (4035a4fb49, 2020-05-01)"
   sodipodi:docname="upload.svg"
   version="1.1"
   viewBox="0 0 24 24"
   height="512"
   width="512"
   data-name="Layer 2"
   id="Layer_2">
  <metadata
     id="metadata11">
    <rdf:RDF>
      <cc:Work
         rdf:about="">
        <dc:format>image/svg+xml</dc:format>
        <dc:type
           rdf:resource="http://purl.org/dc/dcmitype/StillImage" />
      </cc:Work>
    </rdf:RDF>
  </metadata>
  <defs
     id="defs9" />
  <sodipodi:namedview
     inkscape:current-layer="Layer_2"
     inkscape:window-maximized="0"
     inkscape:window-y="0"
     inkscape:window-x="0"
     inkscape:cy="209.629"
     inkscape:cx="184.3294"
     inkscape:zoom="0.71777344"
     showgrid="false"
     id="namedview7"
     inkscape:window-height="969"
     inkscape:window-width="1484"
     inkscape:pageshadow="2"
     inkscape:pageopacity="0"
     guidetolerance="10"
     gridtolerance="10"
     objecttolerance="10"
     borderopacity="1"
     bordercolor="#666666"
     pagecolor="#ffffff" />
  <path
     style="fill:#ffffff;fill-opacity:1"
     id="path2"
     d="M22,13a1,1,0,0,0-1,1v4.213A2.79,2.79,0,0,1,18.213,21H5.787A2.79,2.79,0,0,1,3,18.213V14a1,1,0,0,0-2,0v4.213A4.792,4.792,0,0,0,5.787,23H18.213A4.792,4.792,0,0,0,23,18.213V14A1,1,0,0,0,22,13Z" />
  <path
     style="fill:#ffffff;fill-opacity:1"
     id="path4"
     d="M6.707,8.707,11,4.414V17a1,1,0,0,0,2,0V4.414l4.293,4.293a1,1,0,0,0,1.414-1.414l-6-6a1,1,0,0,0-1.414,0l-6,6A1,1,0,0,0,6.707,8.707Z" />
</svg>
